<mxfile host="app.diagrams.net" agent="Mozilla/5.0 (Windows NT 10.0; Win64; x64) AppleWebKit/537.36 (KHTML, like Gecko) Chrome/137.0.0.0 Safari/537.36" version="27.0.6">
  <diagram name="Page-1" id="CehVLnoYxVPX16vhmrIM">
    <mxGraphModel dx="3043" dy="2393" grid="1" gridSize="10" guides="1" tooltips="1" connect="1" arrows="1" fold="1" page="1" pageScale="1" pageWidth="850" pageHeight="1100" math="0" shadow="0">
      <root>
        <mxCell id="0" />
        <mxCell id="1" parent="0" />
        <mxCell id="wP0De2VSM6HoWvXEG9Eh-117" style="edgeStyle=orthogonalEdgeStyle;rounded=0;orthogonalLoop=1;jettySize=auto;html=1;entryX=0;entryY=0.5;entryDx=0;entryDy=0;labelBackgroundColor=none;strokeColor=#E07A5F;fontColor=default;endArrow=none;startFill=0;" edge="1" parent="1" source="wP0De2VSM6HoWvXEG9Eh-1" target="wP0De2VSM6HoWvXEG9Eh-116">
          <mxGeometry relative="1" as="geometry" />
        </mxCell>
        <mxCell id="wP0De2VSM6HoWvXEG9Eh-164" style="edgeStyle=orthogonalEdgeStyle;rounded=0;orthogonalLoop=1;jettySize=auto;html=1;exitX=0.75;exitY=0;exitDx=0;exitDy=0;entryX=0;entryY=0.5;entryDx=0;entryDy=0;labelBackgroundColor=none;strokeColor=#E07A5F;fontColor=default;endArrow=none;startFill=0;" edge="1" parent="1" source="wP0De2VSM6HoWvXEG9Eh-1" target="wP0De2VSM6HoWvXEG9Eh-163">
          <mxGeometry relative="1" as="geometry">
            <Array as="points">
              <mxPoint x="450" y="150" />
              <mxPoint x="450" y="40" />
            </Array>
          </mxGeometry>
        </mxCell>
        <mxCell id="wP0De2VSM6HoWvXEG9Eh-1" value="Patients" style="rounded=0;whiteSpace=wrap;html=1;labelBackgroundColor=none;fillColor=#F2CC8F;strokeColor=#E07A5F;fontColor=#393C56;" vertex="1" parent="1">
          <mxGeometry x="340" y="150" width="120" height="60" as="geometry" />
        </mxCell>
        <mxCell id="wP0De2VSM6HoWvXEG9Eh-15" style="edgeStyle=orthogonalEdgeStyle;rounded=0;orthogonalLoop=1;jettySize=auto;html=1;labelBackgroundColor=none;strokeColor=#E07A5F;fontColor=default;endArrow=none;startFill=0;" edge="1" parent="1" source="wP0De2VSM6HoWvXEG9Eh-2" target="wP0De2VSM6HoWvXEG9Eh-1">
          <mxGeometry relative="1" as="geometry" />
        </mxCell>
        <mxCell id="wP0De2VSM6HoWvXEG9Eh-2" value="name" style="ellipse;whiteSpace=wrap;html=1;labelBackgroundColor=none;fillColor=#F2CC8F;strokeColor=#E07A5F;fontColor=#393C56;" vertex="1" parent="1">
          <mxGeometry x="200" y="120" width="110" height="30" as="geometry" />
        </mxCell>
        <mxCell id="wP0De2VSM6HoWvXEG9Eh-3" value="DOB" style="ellipse;whiteSpace=wrap;html=1;labelBackgroundColor=none;fillColor=#F2CC8F;strokeColor=#E07A5F;fontColor=#393C56;" vertex="1" parent="1">
          <mxGeometry x="350" y="10" width="110" height="30" as="geometry" />
        </mxCell>
        <mxCell id="wP0De2VSM6HoWvXEG9Eh-16" style="edgeStyle=orthogonalEdgeStyle;rounded=0;orthogonalLoop=1;jettySize=auto;html=1;labelBackgroundColor=none;strokeColor=#E07A5F;fontColor=default;endArrow=none;startFill=0;" edge="1" parent="1" source="wP0De2VSM6HoWvXEG9Eh-5" target="wP0De2VSM6HoWvXEG9Eh-1">
          <mxGeometry relative="1" as="geometry" />
        </mxCell>
        <mxCell id="wP0De2VSM6HoWvXEG9Eh-5" value="&amp;nbsp;contact info&amp;nbsp;" style="ellipse;whiteSpace=wrap;html=1;labelBackgroundColor=none;fillColor=#F2CC8F;strokeColor=#E07A5F;fontColor=#393C56;" vertex="1" parent="1">
          <mxGeometry x="480" y="220" width="110" height="30" as="geometry" />
        </mxCell>
        <mxCell id="wP0De2VSM6HoWvXEG9Eh-13" style="edgeStyle=orthogonalEdgeStyle;rounded=0;orthogonalLoop=1;jettySize=auto;html=1;entryX=1;entryY=0;entryDx=0;entryDy=0;labelBackgroundColor=none;strokeColor=#E07A5F;fontColor=default;endArrow=none;startFill=0;" edge="1" parent="1" source="wP0De2VSM6HoWvXEG9Eh-6" target="wP0De2VSM6HoWvXEG9Eh-1">
          <mxGeometry relative="1" as="geometry" />
        </mxCell>
        <mxCell id="wP0De2VSM6HoWvXEG9Eh-6" value="gender" style="ellipse;whiteSpace=wrap;html=1;labelBackgroundColor=none;fillColor=#F2CC8F;strokeColor=#E07A5F;fontColor=#393C56;" vertex="1" parent="1">
          <mxGeometry x="510" y="100" width="110" height="30" as="geometry" />
        </mxCell>
        <mxCell id="wP0De2VSM6HoWvXEG9Eh-9" value="number" style="ellipse;whiteSpace=wrap;html=1;labelBackgroundColor=none;fillColor=#F2CC8F;strokeColor=#E07A5F;fontColor=#393C56;" vertex="1" parent="1">
          <mxGeometry x="610" y="250" width="110" height="30" as="geometry" />
        </mxCell>
        <mxCell id="wP0De2VSM6HoWvXEG9Eh-10" value="email" style="ellipse;whiteSpace=wrap;html=1;labelBackgroundColor=none;fillColor=#F2CC8F;strokeColor=#E07A5F;fontColor=#393C56;" vertex="1" parent="1">
          <mxGeometry x="470" y="325" width="110" height="30" as="geometry" />
        </mxCell>
        <mxCell id="wP0De2VSM6HoWvXEG9Eh-11" style="edgeStyle=orthogonalEdgeStyle;rounded=0;orthogonalLoop=1;jettySize=auto;html=1;entryX=0.942;entryY=0.719;entryDx=0;entryDy=0;entryPerimeter=0;labelBackgroundColor=none;strokeColor=#E07A5F;fontColor=default;endArrow=none;startFill=0;" edge="1" parent="1" source="wP0De2VSM6HoWvXEG9Eh-9" target="wP0De2VSM6HoWvXEG9Eh-5">
          <mxGeometry relative="1" as="geometry" />
        </mxCell>
        <mxCell id="wP0De2VSM6HoWvXEG9Eh-12" style="edgeStyle=orthogonalEdgeStyle;rounded=0;orthogonalLoop=1;jettySize=auto;html=1;exitX=0;exitY=0.5;exitDx=0;exitDy=0;entryX=0.779;entryY=1.053;entryDx=0;entryDy=0;entryPerimeter=0;labelBackgroundColor=none;strokeColor=#E07A5F;fontColor=default;endArrow=none;startFill=0;" edge="1" parent="1" source="wP0De2VSM6HoWvXEG9Eh-10" target="wP0De2VSM6HoWvXEG9Eh-5">
          <mxGeometry relative="1" as="geometry" />
        </mxCell>
        <mxCell id="wP0De2VSM6HoWvXEG9Eh-14" style="edgeStyle=orthogonalEdgeStyle;rounded=0;orthogonalLoop=1;jettySize=auto;html=1;entryX=0.435;entryY=0.074;entryDx=0;entryDy=0;entryPerimeter=0;labelBackgroundColor=none;strokeColor=#E07A5F;fontColor=default;endArrow=none;startFill=0;" edge="1" parent="1" source="wP0De2VSM6HoWvXEG9Eh-3" target="wP0De2VSM6HoWvXEG9Eh-1">
          <mxGeometry relative="1" as="geometry" />
        </mxCell>
        <mxCell id="wP0De2VSM6HoWvXEG9Eh-17" value="Doctors" style="rounded=0;whiteSpace=wrap;html=1;labelBackgroundColor=none;fillColor=#F2CC8F;strokeColor=#E07A5F;fontColor=#393C56;" vertex="1" parent="1">
          <mxGeometry x="920" y="425" width="120" height="60" as="geometry" />
        </mxCell>
        <mxCell id="wP0De2VSM6HoWvXEG9Eh-28" style="edgeStyle=orthogonalEdgeStyle;rounded=0;orthogonalLoop=1;jettySize=auto;html=1;labelBackgroundColor=none;strokeColor=#E07A5F;fontColor=default;endArrow=none;startFill=0;" edge="1" parent="1" source="wP0De2VSM6HoWvXEG9Eh-18" target="wP0De2VSM6HoWvXEG9Eh-17">
          <mxGeometry relative="1" as="geometry" />
        </mxCell>
        <mxCell id="wP0De2VSM6HoWvXEG9Eh-18" value="specialization" style="ellipse;whiteSpace=wrap;html=1;labelBackgroundColor=none;fillColor=#F2CC8F;strokeColor=#E07A5F;fontColor=#393C56;" vertex="1" parent="1">
          <mxGeometry x="890" y="355" width="110" height="30" as="geometry" />
        </mxCell>
        <mxCell id="wP0De2VSM6HoWvXEG9Eh-29" style="edgeStyle=orthogonalEdgeStyle;rounded=0;orthogonalLoop=1;jettySize=auto;html=1;entryX=1;entryY=0.5;entryDx=0;entryDy=0;labelBackgroundColor=none;strokeColor=#E07A5F;fontColor=default;endArrow=none;startFill=0;" edge="1" parent="1" source="wP0De2VSM6HoWvXEG9Eh-23" target="wP0De2VSM6HoWvXEG9Eh-17">
          <mxGeometry relative="1" as="geometry" />
        </mxCell>
        <mxCell id="wP0De2VSM6HoWvXEG9Eh-23" value="&amp;nbsp;contact info&amp;nbsp;" style="ellipse;whiteSpace=wrap;html=1;labelBackgroundColor=none;fillColor=#F2CC8F;strokeColor=#E07A5F;fontColor=#393C56;" vertex="1" parent="1">
          <mxGeometry x="1100" y="435" width="110" height="30" as="geometry" />
        </mxCell>
        <mxCell id="wP0De2VSM6HoWvXEG9Eh-24" value="number" style="ellipse;whiteSpace=wrap;html=1;labelBackgroundColor=none;fillColor=#F2CC8F;strokeColor=#E07A5F;fontColor=#393C56;" vertex="1" parent="1">
          <mxGeometry x="1230" y="415" width="110" height="30" as="geometry" />
        </mxCell>
        <mxCell id="wP0De2VSM6HoWvXEG9Eh-25" value="email" style="ellipse;whiteSpace=wrap;html=1;labelBackgroundColor=none;fillColor=#F2CC8F;strokeColor=#E07A5F;fontColor=#393C56;" vertex="1" parent="1">
          <mxGeometry x="1230" y="475" width="110" height="30" as="geometry" />
        </mxCell>
        <mxCell id="wP0De2VSM6HoWvXEG9Eh-26" style="edgeStyle=orthogonalEdgeStyle;rounded=0;orthogonalLoop=1;jettySize=auto;html=1;entryX=1;entryY=0;entryDx=0;entryDy=0;labelBackgroundColor=none;strokeColor=#E07A5F;fontColor=default;endArrow=none;startFill=0;" edge="1" parent="1" source="wP0De2VSM6HoWvXEG9Eh-24" target="wP0De2VSM6HoWvXEG9Eh-23">
          <mxGeometry relative="1" as="geometry" />
        </mxCell>
        <mxCell id="wP0De2VSM6HoWvXEG9Eh-27" style="edgeStyle=orthogonalEdgeStyle;rounded=0;orthogonalLoop=1;jettySize=auto;html=1;exitX=0;exitY=0.5;exitDx=0;exitDy=0;entryX=0.779;entryY=1.053;entryDx=0;entryDy=0;entryPerimeter=0;labelBackgroundColor=none;strokeColor=#E07A5F;fontColor=default;endArrow=none;startFill=0;" edge="1" parent="1" source="wP0De2VSM6HoWvXEG9Eh-25" target="wP0De2VSM6HoWvXEG9Eh-23">
          <mxGeometry relative="1" as="geometry" />
        </mxCell>
        <mxCell id="wP0De2VSM6HoWvXEG9Eh-152" style="edgeStyle=orthogonalEdgeStyle;rounded=0;orthogonalLoop=1;jettySize=auto;html=1;exitX=1;exitY=1;exitDx=0;exitDy=0;entryX=0;entryY=0;entryDx=0;entryDy=0;labelBackgroundColor=none;strokeColor=#E07A5F;fontColor=default;endArrow=none;startFill=0;" edge="1" parent="1" source="wP0De2VSM6HoWvXEG9Eh-30" target="wP0De2VSM6HoWvXEG9Eh-151">
          <mxGeometry relative="1" as="geometry">
            <Array as="points">
              <mxPoint x="60" y="420" />
              <mxPoint x="110" y="420" />
              <mxPoint x="110" y="415" />
              <mxPoint x="188" y="415" />
            </Array>
          </mxGeometry>
        </mxCell>
        <mxCell id="wP0De2VSM6HoWvXEG9Eh-30" value="Departments" style="rounded=0;whiteSpace=wrap;html=1;labelBackgroundColor=none;fillColor=#F2CC8F;strokeColor=#E07A5F;fontColor=#393C56;" vertex="1" parent="1">
          <mxGeometry x="-60" y="340" width="120" height="60" as="geometry" />
        </mxCell>
        <mxCell id="wP0De2VSM6HoWvXEG9Eh-31" value="Orthopedics" style="ellipse;whiteSpace=wrap;html=1;labelBackgroundColor=none;fillColor=#F2CC8F;strokeColor=#E07A5F;fontColor=#393C56;" vertex="1" parent="1">
          <mxGeometry x="-170" y="272.5" width="110" height="30" as="geometry" />
        </mxCell>
        <mxCell id="wP0De2VSM6HoWvXEG9Eh-32" value="dermatology" style="ellipse;whiteSpace=wrap;html=1;labelBackgroundColor=none;fillColor=#F2CC8F;strokeColor=#E07A5F;fontColor=#393C56;" vertex="1" parent="1">
          <mxGeometry x="60" y="270" width="110" height="30" as="geometry" />
        </mxCell>
        <mxCell id="wP0De2VSM6HoWvXEG9Eh-39" style="edgeStyle=orthogonalEdgeStyle;rounded=0;orthogonalLoop=1;jettySize=auto;html=1;exitX=1;exitY=0.5;exitDx=0;exitDy=0;labelBackgroundColor=none;strokeColor=#E07A5F;fontColor=default;endArrow=none;startFill=0;" edge="1" parent="1" source="wP0De2VSM6HoWvXEG9Eh-33" target="wP0De2VSM6HoWvXEG9Eh-30">
          <mxGeometry relative="1" as="geometry" />
        </mxCell>
        <mxCell id="wP0De2VSM6HoWvXEG9Eh-33" value="Radiology" style="ellipse;whiteSpace=wrap;html=1;labelBackgroundColor=none;fillColor=#F2CC8F;strokeColor=#E07A5F;fontColor=#393C56;" vertex="1" parent="1">
          <mxGeometry x="-200" y="355" width="110" height="30" as="geometry" />
        </mxCell>
        <mxCell id="wP0De2VSM6HoWvXEG9Eh-37" style="edgeStyle=orthogonalEdgeStyle;rounded=0;orthogonalLoop=1;jettySize=auto;html=1;exitX=0;exitY=0.5;exitDx=0;exitDy=0;entryX=1;entryY=0.25;entryDx=0;entryDy=0;labelBackgroundColor=none;strokeColor=#E07A5F;fontColor=default;endArrow=none;startFill=0;" edge="1" parent="1" source="wP0De2VSM6HoWvXEG9Eh-34" target="wP0De2VSM6HoWvXEG9Eh-30">
          <mxGeometry relative="1" as="geometry" />
        </mxCell>
        <mxCell id="wP0De2VSM6HoWvXEG9Eh-34" value="cardiology" style="ellipse;whiteSpace=wrap;html=1;labelBackgroundColor=none;fillColor=#F2CC8F;strokeColor=#E07A5F;fontColor=#393C56;" vertex="1" parent="1">
          <mxGeometry x="100" y="340" width="110" height="30" as="geometry" />
        </mxCell>
        <mxCell id="wP0De2VSM6HoWvXEG9Eh-38" style="edgeStyle=orthogonalEdgeStyle;rounded=0;orthogonalLoop=1;jettySize=auto;html=1;labelBackgroundColor=none;strokeColor=#E07A5F;fontColor=default;endArrow=none;startFill=0;" edge="1" parent="1" source="wP0De2VSM6HoWvXEG9Eh-35" target="wP0De2VSM6HoWvXEG9Eh-30">
          <mxGeometry relative="1" as="geometry" />
        </mxCell>
        <mxCell id="wP0De2VSM6HoWvXEG9Eh-35" value="Urology" style="ellipse;whiteSpace=wrap;html=1;labelBackgroundColor=none;fillColor=#F2CC8F;strokeColor=#E07A5F;fontColor=#393C56;" vertex="1" parent="1">
          <mxGeometry x="-50" y="450" width="110" height="30" as="geometry" />
        </mxCell>
        <mxCell id="wP0De2VSM6HoWvXEG9Eh-36" style="edgeStyle=orthogonalEdgeStyle;rounded=0;orthogonalLoop=1;jettySize=auto;html=1;entryX=0.696;entryY=-0.002;entryDx=0;entryDy=0;entryPerimeter=0;labelBackgroundColor=none;strokeColor=#E07A5F;fontColor=default;endArrow=none;startFill=0;" edge="1" parent="1" source="wP0De2VSM6HoWvXEG9Eh-32" target="wP0De2VSM6HoWvXEG9Eh-30">
          <mxGeometry relative="1" as="geometry" />
        </mxCell>
        <mxCell id="wP0De2VSM6HoWvXEG9Eh-40" style="edgeStyle=orthogonalEdgeStyle;rounded=0;orthogonalLoop=1;jettySize=auto;html=1;entryX=0.155;entryY=0.069;entryDx=0;entryDy=0;entryPerimeter=0;labelBackgroundColor=none;strokeColor=#E07A5F;fontColor=default;endArrow=none;startFill=0;" edge="1" parent="1" source="wP0De2VSM6HoWvXEG9Eh-31" target="wP0De2VSM6HoWvXEG9Eh-30">
          <mxGeometry relative="1" as="geometry" />
        </mxCell>
        <mxCell id="wP0De2VSM6HoWvXEG9Eh-157" style="edgeStyle=orthogonalEdgeStyle;rounded=0;orthogonalLoop=1;jettySize=auto;html=1;exitX=1;exitY=0;exitDx=0;exitDy=0;entryX=0;entryY=0.5;entryDx=0;entryDy=0;labelBackgroundColor=none;strokeColor=#E07A5F;fontColor=default;endArrow=none;startFill=0;" edge="1" parent="1" source="wP0De2VSM6HoWvXEG9Eh-41" target="wP0De2VSM6HoWvXEG9Eh-156">
          <mxGeometry relative="1" as="geometry">
            <Array as="points">
              <mxPoint x="950" y="180" />
              <mxPoint x="1025" y="180" />
              <mxPoint x="1025" y="190" />
            </Array>
          </mxGeometry>
        </mxCell>
        <mxCell id="wP0De2VSM6HoWvXEG9Eh-41" value="Appointments" style="rounded=0;whiteSpace=wrap;html=1;labelBackgroundColor=none;fillColor=#F2CC8F;strokeColor=#E07A5F;fontColor=#393C56;" vertex="1" parent="1">
          <mxGeometry x="830" y="172.5" width="120" height="60" as="geometry" />
        </mxCell>
        <mxCell id="wP0De2VSM6HoWvXEG9Eh-42" value="Admissions" style="rounded=0;whiteSpace=wrap;html=1;labelBackgroundColor=none;fillColor=#F2CC8F;strokeColor=#E07A5F;fontColor=#393C56;" vertex="1" parent="1">
          <mxGeometry x="370" y="600" width="120" height="60" as="geometry" />
        </mxCell>
        <mxCell id="wP0De2VSM6HoWvXEG9Eh-49" style="edgeStyle=orthogonalEdgeStyle;rounded=0;orthogonalLoop=1;jettySize=auto;html=1;exitX=0;exitY=0.5;exitDx=0;exitDy=0;entryX=0.75;entryY=0;entryDx=0;entryDy=0;labelBackgroundColor=none;strokeColor=#E07A5F;fontColor=default;endArrow=none;startFill=0;" edge="1" parent="1" source="wP0De2VSM6HoWvXEG9Eh-43" target="wP0De2VSM6HoWvXEG9Eh-42">
          <mxGeometry relative="1" as="geometry" />
        </mxCell>
        <mxCell id="wP0De2VSM6HoWvXEG9Eh-43" value="Admissions room number" style="ellipse;whiteSpace=wrap;html=1;labelBackgroundColor=none;fillColor=#F2CC8F;strokeColor=#E07A5F;fontColor=#393C56;" vertex="1" parent="1">
          <mxGeometry x="510" y="505" width="110" height="30" as="geometry" />
        </mxCell>
        <mxCell id="wP0De2VSM6HoWvXEG9Eh-48" style="edgeStyle=orthogonalEdgeStyle;rounded=0;orthogonalLoop=1;jettySize=auto;html=1;entryX=1;entryY=0.5;entryDx=0;entryDy=0;labelBackgroundColor=none;strokeColor=#E07A5F;fontColor=default;endArrow=none;startFill=0;" edge="1" parent="1" source="wP0De2VSM6HoWvXEG9Eh-44" target="wP0De2VSM6HoWvXEG9Eh-42">
          <mxGeometry relative="1" as="geometry" />
        </mxCell>
        <mxCell id="wP0De2VSM6HoWvXEG9Eh-44" value="date in" style="ellipse;whiteSpace=wrap;html=1;labelBackgroundColor=none;fillColor=#F2CC8F;strokeColor=#E07A5F;fontColor=#393C56;" vertex="1" parent="1">
          <mxGeometry x="540" y="570" width="110" height="30" as="geometry" />
        </mxCell>
        <mxCell id="wP0De2VSM6HoWvXEG9Eh-47" style="edgeStyle=orthogonalEdgeStyle;rounded=0;orthogonalLoop=1;jettySize=auto;html=1;entryX=1;entryY=0;entryDx=0;entryDy=0;labelBackgroundColor=none;strokeColor=#E07A5F;fontColor=default;endArrow=none;startFill=0;" edge="1" parent="1" source="wP0De2VSM6HoWvXEG9Eh-45" target="wP0De2VSM6HoWvXEG9Eh-42">
          <mxGeometry relative="1" as="geometry" />
        </mxCell>
        <mxCell id="wP0De2VSM6HoWvXEG9Eh-45" value="data out" style="ellipse;whiteSpace=wrap;html=1;labelBackgroundColor=none;fillColor=#F2CC8F;strokeColor=#E07A5F;fontColor=#393C56;" vertex="1" parent="1">
          <mxGeometry x="560" y="615" width="110" height="30" as="geometry" />
        </mxCell>
        <mxCell id="wP0De2VSM6HoWvXEG9Eh-50" value="Rooms" style="rounded=0;whiteSpace=wrap;html=1;labelBackgroundColor=none;fillColor=#F2CC8F;strokeColor=#E07A5F;fontColor=#393C56;" vertex="1" parent="1">
          <mxGeometry x="290" y="1040" width="120" height="60" as="geometry" />
        </mxCell>
        <mxCell id="wP0De2VSM6HoWvXEG9Eh-51" value="type" style="ellipse;whiteSpace=wrap;html=1;labelBackgroundColor=none;fillColor=#F2CC8F;strokeColor=#E07A5F;fontColor=#393C56;" vertex="1" parent="1">
          <mxGeometry x="450" y="990" width="110" height="30" as="geometry" />
        </mxCell>
        <mxCell id="wP0De2VSM6HoWvXEG9Eh-56" style="edgeStyle=orthogonalEdgeStyle;rounded=0;orthogonalLoop=1;jettySize=auto;html=1;exitX=0.5;exitY=1;exitDx=0;exitDy=0;entryX=1;entryY=0.5;entryDx=0;entryDy=0;labelBackgroundColor=none;strokeColor=#E07A5F;fontColor=default;endArrow=none;startFill=0;" edge="1" parent="1" source="wP0De2VSM6HoWvXEG9Eh-52" target="wP0De2VSM6HoWvXEG9Eh-51">
          <mxGeometry relative="1" as="geometry" />
        </mxCell>
        <mxCell id="wP0De2VSM6HoWvXEG9Eh-52" value="ICU" style="ellipse;whiteSpace=wrap;html=1;labelBackgroundColor=none;fillColor=#F2CC8F;strokeColor=#E07A5F;fontColor=#393C56;" vertex="1" parent="1">
          <mxGeometry x="640" y="920" width="110" height="30" as="geometry" />
        </mxCell>
        <mxCell id="wP0De2VSM6HoWvXEG9Eh-211" style="edgeStyle=orthogonalEdgeStyle;rounded=0;orthogonalLoop=1;jettySize=auto;html=1;entryX=0.5;entryY=0;entryDx=0;entryDy=0;strokeColor=#E07A5F;fontColor=#393C56;fillColor=#F2CC8F;endArrow=none;startFill=0;" edge="1" parent="1" source="wP0De2VSM6HoWvXEG9Eh-53" target="wP0De2VSM6HoWvXEG9Eh-51">
          <mxGeometry relative="1" as="geometry" />
        </mxCell>
        <mxCell id="wP0De2VSM6HoWvXEG9Eh-53" value="general" style="ellipse;whiteSpace=wrap;html=1;labelBackgroundColor=none;fillColor=#F2CC8F;strokeColor=#E07A5F;fontColor=#393C56;" vertex="1" parent="1">
          <mxGeometry x="510" y="920" width="110" height="30" as="geometry" />
        </mxCell>
        <mxCell id="wP0De2VSM6HoWvXEG9Eh-57" style="edgeStyle=orthogonalEdgeStyle;rounded=0;orthogonalLoop=1;jettySize=auto;html=1;entryX=0.591;entryY=0.071;entryDx=0;entryDy=0;entryPerimeter=0;labelBackgroundColor=none;strokeColor=#E07A5F;fontColor=default;endArrow=none;startFill=0;" edge="1" parent="1" source="wP0De2VSM6HoWvXEG9Eh-51" target="wP0De2VSM6HoWvXEG9Eh-50">
          <mxGeometry relative="1" as="geometry" />
        </mxCell>
        <mxCell id="wP0De2VSM6HoWvXEG9Eh-59" style="edgeStyle=orthogonalEdgeStyle;rounded=0;orthogonalLoop=1;jettySize=auto;html=1;entryX=1;entryY=0.5;entryDx=0;entryDy=0;labelBackgroundColor=none;strokeColor=#E07A5F;fontColor=default;endArrow=none;startFill=0;" edge="1" parent="1" source="wP0De2VSM6HoWvXEG9Eh-58" target="wP0De2VSM6HoWvXEG9Eh-50">
          <mxGeometry relative="1" as="geometry" />
        </mxCell>
        <mxCell id="wP0De2VSM6HoWvXEG9Eh-58" value="availability" style="ellipse;whiteSpace=wrap;html=1;labelBackgroundColor=none;fillColor=#F2CC8F;strokeColor=#E07A5F;fontColor=#393C56;" vertex="1" parent="1">
          <mxGeometry x="490" y="1055" width="110" height="30" as="geometry" />
        </mxCell>
        <mxCell id="wP0De2VSM6HoWvXEG9Eh-60" value="MedicalRecords" style="rounded=0;whiteSpace=wrap;html=1;labelBackgroundColor=none;fillColor=#F2CC8F;strokeColor=#E07A5F;fontColor=#393C56;" vertex="1" parent="1">
          <mxGeometry x="1360" y="160" width="120" height="60" as="geometry" />
        </mxCell>
        <mxCell id="wP0De2VSM6HoWvXEG9Eh-66" style="edgeStyle=orthogonalEdgeStyle;rounded=0;orthogonalLoop=1;jettySize=auto;html=1;entryX=0.5;entryY=1;entryDx=0;entryDy=0;labelBackgroundColor=none;strokeColor=#E07A5F;fontColor=default;endArrow=none;startFill=0;" edge="1" parent="1" source="wP0De2VSM6HoWvXEG9Eh-61" target="wP0De2VSM6HoWvXEG9Eh-60">
          <mxGeometry relative="1" as="geometry" />
        </mxCell>
        <mxCell id="wP0De2VSM6HoWvXEG9Eh-61" value="date" style="ellipse;whiteSpace=wrap;html=1;labelBackgroundColor=none;fillColor=#F2CC8F;strokeColor=#E07A5F;fontColor=#393C56;" vertex="1" parent="1">
          <mxGeometry x="1390" y="280" width="110" height="30" as="geometry" />
        </mxCell>
        <mxCell id="wP0De2VSM6HoWvXEG9Eh-67" style="edgeStyle=orthogonalEdgeStyle;rounded=0;orthogonalLoop=1;jettySize=auto;html=1;entryX=1;entryY=0.5;entryDx=0;entryDy=0;labelBackgroundColor=none;strokeColor=#E07A5F;fontColor=default;endArrow=none;startFill=0;" edge="1" parent="1" source="wP0De2VSM6HoWvXEG9Eh-62" target="wP0De2VSM6HoWvXEG9Eh-60">
          <mxGeometry relative="1" as="geometry" />
        </mxCell>
        <mxCell id="wP0De2VSM6HoWvXEG9Eh-62" value="plans" style="ellipse;whiteSpace=wrap;html=1;labelBackgroundColor=none;fillColor=#F2CC8F;strokeColor=#E07A5F;fontColor=#393C56;" vertex="1" parent="1">
          <mxGeometry x="1530" y="200" width="110" height="30" as="geometry" />
        </mxCell>
        <mxCell id="wP0De2VSM6HoWvXEG9Eh-69" style="edgeStyle=orthogonalEdgeStyle;rounded=0;orthogonalLoop=1;jettySize=auto;html=1;entryX=0;entryY=0.5;entryDx=0;entryDy=0;labelBackgroundColor=none;strokeColor=#E07A5F;fontColor=default;endArrow=none;startFill=0;" edge="1" parent="1" source="wP0De2VSM6HoWvXEG9Eh-63" target="wP0De2VSM6HoWvXEG9Eh-60">
          <mxGeometry relative="1" as="geometry" />
        </mxCell>
        <mxCell id="wP0De2VSM6HoWvXEG9Eh-63" value="Diagnosis" style="ellipse;whiteSpace=wrap;html=1;labelBackgroundColor=none;fillColor=#F2CC8F;strokeColor=#E07A5F;fontColor=#393C56;" vertex="1" parent="1">
          <mxGeometry x="1300" y="110" width="110" height="30" as="geometry" />
        </mxCell>
        <mxCell id="wP0De2VSM6HoWvXEG9Eh-68" style="edgeStyle=orthogonalEdgeStyle;rounded=0;orthogonalLoop=1;jettySize=auto;html=1;entryX=1;entryY=0.25;entryDx=0;entryDy=0;labelBackgroundColor=none;strokeColor=#E07A5F;fontColor=default;endArrow=none;startFill=0;" edge="1" parent="1" source="wP0De2VSM6HoWvXEG9Eh-64" target="wP0De2VSM6HoWvXEG9Eh-60">
          <mxGeometry relative="1" as="geometry" />
        </mxCell>
        <mxCell id="wP0De2VSM6HoWvXEG9Eh-64" value="treatment" style="ellipse;whiteSpace=wrap;html=1;labelBackgroundColor=none;fillColor=#F2CC8F;strokeColor=#E07A5F;fontColor=#393C56;" vertex="1" parent="1">
          <mxGeometry x="1470" y="120" width="110" height="30" as="geometry" />
        </mxCell>
        <mxCell id="wP0De2VSM6HoWvXEG9Eh-70" style="edgeStyle=orthogonalEdgeStyle;rounded=0;orthogonalLoop=1;jettySize=auto;html=1;exitX=0.5;exitY=0;exitDx=0;exitDy=0;entryX=0;entryY=0.75;entryDx=0;entryDy=0;labelBackgroundColor=none;strokeColor=#E07A5F;fontColor=default;endArrow=none;startFill=0;" edge="1" parent="1" source="wP0De2VSM6HoWvXEG9Eh-65" target="wP0De2VSM6HoWvXEG9Eh-60">
          <mxGeometry relative="1" as="geometry" />
        </mxCell>
        <mxCell id="wP0De2VSM6HoWvXEG9Eh-65" value="notes" style="ellipse;whiteSpace=wrap;html=1;labelBackgroundColor=none;fillColor=#F2CC8F;strokeColor=#E07A5F;fontColor=#393C56;" vertex="1" parent="1">
          <mxGeometry x="1250" y="240" width="110" height="30" as="geometry" />
        </mxCell>
        <mxCell id="wP0De2VSM6HoWvXEG9Eh-171" style="edgeStyle=orthogonalEdgeStyle;rounded=0;orthogonalLoop=1;jettySize=auto;html=1;exitX=0.75;exitY=1;exitDx=0;exitDy=0;entryX=0;entryY=0.5;entryDx=0;entryDy=0;labelBackgroundColor=none;strokeColor=#E07A5F;fontColor=default;endArrow=none;startFill=0;" edge="1" parent="1" source="wP0De2VSM6HoWvXEG9Eh-71" target="wP0De2VSM6HoWvXEG9Eh-170">
          <mxGeometry relative="1" as="geometry" />
        </mxCell>
        <mxCell id="wP0De2VSM6HoWvXEG9Eh-71" value="Billing" style="rounded=0;whiteSpace=wrap;html=1;labelBackgroundColor=none;fillColor=#F2CC8F;strokeColor=#E07A5F;fontColor=#393C56;" vertex="1" parent="1">
          <mxGeometry x="50" y="-50" width="120" height="60" as="geometry" />
        </mxCell>
        <mxCell id="wP0De2VSM6HoWvXEG9Eh-78" style="edgeStyle=orthogonalEdgeStyle;rounded=0;orthogonalLoop=1;jettySize=auto;html=1;exitX=1;exitY=0.5;exitDx=0;exitDy=0;entryX=0.25;entryY=0;entryDx=0;entryDy=0;labelBackgroundColor=none;strokeColor=#E07A5F;fontColor=default;endArrow=none;startFill=0;" edge="1" parent="1" source="wP0De2VSM6HoWvXEG9Eh-72" target="wP0De2VSM6HoWvXEG9Eh-71">
          <mxGeometry relative="1" as="geometry" />
        </mxCell>
        <mxCell id="wP0De2VSM6HoWvXEG9Eh-72" value="Total cost" style="ellipse;whiteSpace=wrap;html=1;labelBackgroundColor=none;fillColor=#F2CC8F;strokeColor=#E07A5F;fontColor=#393C56;" vertex="1" parent="1">
          <mxGeometry x="-70" y="-90" width="110" height="30" as="geometry" />
        </mxCell>
        <mxCell id="wP0De2VSM6HoWvXEG9Eh-74" value=" patient ID" style="ellipse;whiteSpace=wrap;html=1;labelBackgroundColor=none;fillColor=#F2CC8F;strokeColor=#E07A5F;fontColor=#393C56;" vertex="1" parent="1">
          <mxGeometry x="170" y="-80" width="110" height="30" as="geometry" />
        </mxCell>
        <mxCell id="wP0De2VSM6HoWvXEG9Eh-80" value="" style="edgeStyle=orthogonalEdgeStyle;rounded=0;orthogonalLoop=1;jettySize=auto;html=1;labelBackgroundColor=none;strokeColor=#E07A5F;fontColor=default;endArrow=none;startFill=0;" edge="1" parent="1" source="wP0De2VSM6HoWvXEG9Eh-75" target="wP0De2VSM6HoWvXEG9Eh-71">
          <mxGeometry relative="1" as="geometry" />
        </mxCell>
        <mxCell id="wP0De2VSM6HoWvXEG9Eh-75" value="services" style="ellipse;whiteSpace=wrap;html=1;labelBackgroundColor=none;fillColor=#F2CC8F;strokeColor=#E07A5F;fontColor=#393C56;" vertex="1" parent="1">
          <mxGeometry x="230" y="-30" width="110" height="30" as="geometry" />
        </mxCell>
        <mxCell id="wP0De2VSM6HoWvXEG9Eh-77" style="edgeStyle=orthogonalEdgeStyle;rounded=0;orthogonalLoop=1;jettySize=auto;html=1;entryX=0;entryY=0.5;entryDx=0;entryDy=0;labelBackgroundColor=none;strokeColor=#E07A5F;fontColor=default;endArrow=none;startFill=0;" edge="1" parent="1" source="wP0De2VSM6HoWvXEG9Eh-76" target="wP0De2VSM6HoWvXEG9Eh-71">
          <mxGeometry relative="1" as="geometry" />
        </mxCell>
        <mxCell id="wP0De2VSM6HoWvXEG9Eh-76" value="date" style="ellipse;whiteSpace=wrap;html=1;labelBackgroundColor=none;fillColor=#F2CC8F;strokeColor=#E07A5F;fontColor=#393C56;" vertex="1" parent="1">
          <mxGeometry x="-90" y="20" width="110" height="30" as="geometry" />
        </mxCell>
        <mxCell id="wP0De2VSM6HoWvXEG9Eh-79" style="edgeStyle=orthogonalEdgeStyle;rounded=0;orthogonalLoop=1;jettySize=auto;html=1;entryX=0.657;entryY=-0.031;entryDx=0;entryDy=0;entryPerimeter=0;labelBackgroundColor=none;strokeColor=#E07A5F;fontColor=default;endArrow=none;startFill=0;" edge="1" parent="1" source="wP0De2VSM6HoWvXEG9Eh-74" target="wP0De2VSM6HoWvXEG9Eh-71">
          <mxGeometry relative="1" as="geometry" />
        </mxCell>
        <mxCell id="wP0De2VSM6HoWvXEG9Eh-144" style="edgeStyle=orthogonalEdgeStyle;rounded=0;orthogonalLoop=1;jettySize=auto;html=1;entryX=0;entryY=0.5;entryDx=0;entryDy=0;labelBackgroundColor=none;strokeColor=#E07A5F;fontColor=default;endArrow=none;startFill=0;" edge="1" parent="1" source="wP0De2VSM6HoWvXEG9Eh-81" target="wP0De2VSM6HoWvXEG9Eh-143">
          <mxGeometry relative="1" as="geometry" />
        </mxCell>
        <mxCell id="wP0De2VSM6HoWvXEG9Eh-180" style="edgeStyle=orthogonalEdgeStyle;rounded=0;orthogonalLoop=1;jettySize=auto;html=1;exitX=0.75;exitY=1;exitDx=0;exitDy=0;entryX=0.5;entryY=0;entryDx=0;entryDy=0;labelBackgroundColor=none;strokeColor=#E07A5F;fontColor=default;endArrow=none;startFill=0;" edge="1" parent="1" source="wP0De2VSM6HoWvXEG9Eh-81" target="wP0De2VSM6HoWvXEG9Eh-179">
          <mxGeometry relative="1" as="geometry" />
        </mxCell>
        <mxCell id="wP0De2VSM6HoWvXEG9Eh-81" value="Staff" style="rounded=0;whiteSpace=wrap;html=1;labelBackgroundColor=none;fillColor=#F2CC8F;strokeColor=#E07A5F;fontColor=#393C56;" vertex="1" parent="1">
          <mxGeometry x="-320" y="180" width="120" height="60" as="geometry" />
        </mxCell>
        <mxCell id="wP0De2VSM6HoWvXEG9Eh-88" style="edgeStyle=orthogonalEdgeStyle;rounded=0;orthogonalLoop=1;jettySize=auto;html=1;exitX=1;exitY=0.5;exitDx=0;exitDy=0;labelBackgroundColor=none;strokeColor=#E07A5F;fontColor=default;endArrow=none;startFill=0;" edge="1" parent="1" source="wP0De2VSM6HoWvXEG9Eh-82" target="wP0De2VSM6HoWvXEG9Eh-81">
          <mxGeometry relative="1" as="geometry" />
        </mxCell>
        <mxCell id="wP0De2VSM6HoWvXEG9Eh-82" value="admin: role" style="ellipse;whiteSpace=wrap;html=1;labelBackgroundColor=none;fillColor=#F2CC8F;strokeColor=#E07A5F;fontColor=#393C56;" vertex="1" parent="1">
          <mxGeometry x="-480" y="220" width="110" height="30" as="geometry" />
        </mxCell>
        <mxCell id="wP0De2VSM6HoWvXEG9Eh-89" style="edgeStyle=orthogonalEdgeStyle;rounded=0;orthogonalLoop=1;jettySize=auto;html=1;exitX=1;exitY=0.5;exitDx=0;exitDy=0;entryX=0;entryY=0.25;entryDx=0;entryDy=0;labelBackgroundColor=none;strokeColor=#E07A5F;fontColor=default;endArrow=none;startFill=0;" edge="1" parent="1" source="wP0De2VSM6HoWvXEG9Eh-83" target="wP0De2VSM6HoWvXEG9Eh-81">
          <mxGeometry relative="1" as="geometry" />
        </mxCell>
        <mxCell id="wP0De2VSM6HoWvXEG9Eh-83" value="shift" style="ellipse;whiteSpace=wrap;html=1;labelBackgroundColor=none;fillColor=#F2CC8F;strokeColor=#E07A5F;fontColor=#393C56;" vertex="1" parent="1">
          <mxGeometry x="-460" y="130" width="110" height="30" as="geometry" />
        </mxCell>
        <mxCell id="wP0De2VSM6HoWvXEG9Eh-90" style="edgeStyle=orthogonalEdgeStyle;rounded=0;orthogonalLoop=1;jettySize=auto;html=1;exitX=0.5;exitY=1;exitDx=0;exitDy=0;entryX=0.5;entryY=0;entryDx=0;entryDy=0;labelBackgroundColor=none;strokeColor=#E07A5F;fontColor=default;endArrow=none;startFill=0;" edge="1" parent="1" source="wP0De2VSM6HoWvXEG9Eh-84" target="wP0De2VSM6HoWvXEG9Eh-81">
          <mxGeometry relative="1" as="geometry" />
        </mxCell>
        <mxCell id="wP0De2VSM6HoWvXEG9Eh-84" value=" assigned dept" style="ellipse;whiteSpace=wrap;html=1;labelBackgroundColor=none;fillColor=#F2CC8F;strokeColor=#E07A5F;fontColor=#393C56;" vertex="1" parent="1">
          <mxGeometry x="-250" y="90" width="110" height="30" as="geometry" />
        </mxCell>
        <mxCell id="wP0De2VSM6HoWvXEG9Eh-86" value="Nurses" style="ellipse;whiteSpace=wrap;html=1;labelBackgroundColor=none;fillColor=#F2CC8F;strokeColor=#E07A5F;fontColor=#393C56;" vertex="1" parent="1">
          <mxGeometry x="-410" y="280" width="110" height="30" as="geometry" />
        </mxCell>
        <mxCell id="wP0De2VSM6HoWvXEG9Eh-87" style="edgeStyle=orthogonalEdgeStyle;rounded=0;orthogonalLoop=1;jettySize=auto;html=1;entryX=0.582;entryY=1.018;entryDx=0;entryDy=0;entryPerimeter=0;labelBackgroundColor=none;strokeColor=#E07A5F;fontColor=default;endArrow=none;startFill=0;" edge="1" parent="1" source="wP0De2VSM6HoWvXEG9Eh-86" target="wP0De2VSM6HoWvXEG9Eh-81">
          <mxGeometry relative="1" as="geometry" />
        </mxCell>
        <mxCell id="wP0De2VSM6HoWvXEG9Eh-200" style="edgeStyle=orthogonalEdgeStyle;rounded=0;orthogonalLoop=1;jettySize=auto;html=1;entryX=0;entryY=0.5;entryDx=0;entryDy=0;labelBackgroundColor=none;strokeColor=#E07A5F;fontColor=default;endArrow=none;startFill=0;" edge="1" parent="1" source="wP0De2VSM6HoWvXEG9Eh-91" target="wP0De2VSM6HoWvXEG9Eh-198">
          <mxGeometry relative="1" as="geometry" />
        </mxCell>
        <mxCell id="wP0De2VSM6HoWvXEG9Eh-91" value="Users" style="rounded=0;whiteSpace=wrap;html=1;labelBackgroundColor=none;fillColor=#F2CC8F;strokeColor=#E07A5F;fontColor=#393C56;" vertex="1" parent="1">
          <mxGeometry x="-370" y="744.9" width="120" height="60" as="geometry" />
        </mxCell>
        <mxCell id="wP0De2VSM6HoWvXEG9Eh-97" style="edgeStyle=orthogonalEdgeStyle;rounded=0;orthogonalLoop=1;jettySize=auto;html=1;exitX=0.5;exitY=1;exitDx=0;exitDy=0;entryX=0.5;entryY=0;entryDx=0;entryDy=0;labelBackgroundColor=none;strokeColor=#E07A5F;fontColor=default;endArrow=none;startFill=0;" edge="1" parent="1" source="wP0De2VSM6HoWvXEG9Eh-92" target="wP0De2VSM6HoWvXEG9Eh-91">
          <mxGeometry relative="1" as="geometry" />
        </mxCell>
        <mxCell id="wP0De2VSM6HoWvXEG9Eh-92" value="username" style="ellipse;whiteSpace=wrap;html=1;labelBackgroundColor=none;fillColor=#F2CC8F;strokeColor=#E07A5F;fontColor=#393C56;" vertex="1" parent="1">
          <mxGeometry x="-500" y="560" width="110" height="30" as="geometry" />
        </mxCell>
        <mxCell id="wP0De2VSM6HoWvXEG9Eh-96" style="edgeStyle=orthogonalEdgeStyle;rounded=0;orthogonalLoop=1;jettySize=auto;html=1;exitX=0;exitY=0.5;exitDx=0;exitDy=0;entryX=0.5;entryY=1;entryDx=0;entryDy=0;labelBackgroundColor=none;strokeColor=#E07A5F;fontColor=default;endArrow=none;startFill=0;" edge="1" parent="1" source="wP0De2VSM6HoWvXEG9Eh-93" target="wP0De2VSM6HoWvXEG9Eh-91">
          <mxGeometry relative="1" as="geometry" />
        </mxCell>
        <mxCell id="wP0De2VSM6HoWvXEG9Eh-93" value="password" style="ellipse;whiteSpace=wrap;html=1;labelBackgroundColor=none;fillColor=#F2CC8F;strokeColor=#E07A5F;fontColor=#393C56;" vertex="1" parent="1">
          <mxGeometry x="-250" y="900" width="110" height="30" as="geometry" />
        </mxCell>
        <mxCell id="wP0De2VSM6HoWvXEG9Eh-189" style="edgeStyle=orthogonalEdgeStyle;rounded=0;orthogonalLoop=1;jettySize=auto;html=1;entryX=0;entryY=0.75;entryDx=0;entryDy=0;labelBackgroundColor=none;strokeColor=#E07A5F;fontColor=default;endArrow=none;startFill=0;" edge="1" parent="1" source="wP0De2VSM6HoWvXEG9Eh-94" target="wP0De2VSM6HoWvXEG9Eh-91">
          <mxGeometry relative="1" as="geometry">
            <Array as="points">
              <mxPoint x="-450" y="790" />
            </Array>
          </mxGeometry>
        </mxCell>
        <mxCell id="wP0De2VSM6HoWvXEG9Eh-94" value="role" style="ellipse;whiteSpace=wrap;html=1;labelBackgroundColor=none;fillColor=#F2CC8F;strokeColor=#E07A5F;fontColor=#393C56;" vertex="1" parent="1">
          <mxGeometry x="-520" y="880" width="110" height="30" as="geometry" />
        </mxCell>
        <mxCell id="wP0De2VSM6HoWvXEG9Eh-100" style="edgeStyle=orthogonalEdgeStyle;rounded=0;orthogonalLoop=1;jettySize=auto;html=1;entryX=0;entryY=0.75;entryDx=0;entryDy=0;labelBackgroundColor=none;strokeColor=#E07A5F;fontColor=default;endArrow=none;startFill=0;" edge="1" parent="1" source="wP0De2VSM6HoWvXEG9Eh-99" target="wP0De2VSM6HoWvXEG9Eh-1">
          <mxGeometry relative="1" as="geometry" />
        </mxCell>
        <mxCell id="wP0De2VSM6HoWvXEG9Eh-99" value="&lt;u&gt;PatientsID&lt;/u&gt;" style="ellipse;whiteSpace=wrap;html=1;labelBackgroundColor=none;fillColor=#F2CC8F;strokeColor=#E07A5F;fontColor=#393C56;" vertex="1" parent="1">
          <mxGeometry x="180" y="187.5" width="110" height="30" as="geometry" />
        </mxCell>
        <mxCell id="wP0De2VSM6HoWvXEG9Eh-102" style="edgeStyle=orthogonalEdgeStyle;rounded=0;orthogonalLoop=1;jettySize=auto;html=1;entryX=0.5;entryY=1;entryDx=0;entryDy=0;labelBackgroundColor=none;strokeColor=#E07A5F;fontColor=default;endArrow=none;startFill=0;" edge="1" parent="1" source="wP0De2VSM6HoWvXEG9Eh-101" target="wP0De2VSM6HoWvXEG9Eh-17">
          <mxGeometry relative="1" as="geometry" />
        </mxCell>
        <mxCell id="wP0De2VSM6HoWvXEG9Eh-101" value="&lt;u&gt;DoctorsID&lt;/u&gt;" style="ellipse;whiteSpace=wrap;html=1;labelBackgroundColor=none;fillColor=#F2CC8F;strokeColor=#E07A5F;fontColor=#393C56;" vertex="1" parent="1">
          <mxGeometry x="1090" y="520" width="110" height="30" as="geometry" />
        </mxCell>
        <mxCell id="wP0De2VSM6HoWvXEG9Eh-103" value="&lt;u&gt;AppointemntsID&lt;/u&gt;" style="ellipse;whiteSpace=wrap;html=1;labelBackgroundColor=none;fillColor=#F2CC8F;strokeColor=#E07A5F;fontColor=#393C56;" vertex="1" parent="1">
          <mxGeometry x="920" y="272.5" width="110" height="30" as="geometry" />
        </mxCell>
        <mxCell id="wP0De2VSM6HoWvXEG9Eh-106" style="edgeStyle=orthogonalEdgeStyle;rounded=0;orthogonalLoop=1;jettySize=auto;html=1;labelBackgroundColor=none;strokeColor=#E07A5F;fontColor=default;endArrow=none;startFill=0;" edge="1" parent="1" source="wP0De2VSM6HoWvXEG9Eh-104" target="wP0De2VSM6HoWvXEG9Eh-41">
          <mxGeometry relative="1" as="geometry" />
        </mxCell>
        <mxCell id="wP0De2VSM6HoWvXEG9Eh-104" value="day" style="ellipse;whiteSpace=wrap;html=1;labelBackgroundColor=none;fillColor=#F2CC8F;strokeColor=#E07A5F;fontColor=#393C56;" vertex="1" parent="1">
          <mxGeometry x="960" y="127.5" width="110" height="30" as="geometry" />
        </mxCell>
        <mxCell id="wP0De2VSM6HoWvXEG9Eh-107" style="edgeStyle=orthogonalEdgeStyle;rounded=0;orthogonalLoop=1;jettySize=auto;html=1;entryX=1;entryY=0.5;entryDx=0;entryDy=0;labelBackgroundColor=none;strokeColor=#E07A5F;fontColor=default;endArrow=none;startFill=0;" edge="1" parent="1" source="wP0De2VSM6HoWvXEG9Eh-105" target="wP0De2VSM6HoWvXEG9Eh-41">
          <mxGeometry relative="1" as="geometry" />
        </mxCell>
        <mxCell id="wP0De2VSM6HoWvXEG9Eh-105" value="Time" style="ellipse;whiteSpace=wrap;html=1;labelBackgroundColor=none;fillColor=#F2CC8F;strokeColor=#E07A5F;fontColor=#393C56;" vertex="1" parent="1">
          <mxGeometry x="990" y="212.5" width="110" height="30" as="geometry" />
        </mxCell>
        <mxCell id="wP0De2VSM6HoWvXEG9Eh-108" style="edgeStyle=orthogonalEdgeStyle;rounded=0;orthogonalLoop=1;jettySize=auto;html=1;entryX=0.655;entryY=0.974;entryDx=0;entryDy=0;entryPerimeter=0;labelBackgroundColor=none;strokeColor=#E07A5F;fontColor=default;endArrow=none;startFill=0;" edge="1" parent="1" source="wP0De2VSM6HoWvXEG9Eh-103" target="wP0De2VSM6HoWvXEG9Eh-41">
          <mxGeometry relative="1" as="geometry" />
        </mxCell>
        <mxCell id="wP0De2VSM6HoWvXEG9Eh-110" style="edgeStyle=orthogonalEdgeStyle;rounded=0;orthogonalLoop=1;jettySize=auto;html=1;entryX=0;entryY=0.5;entryDx=0;entryDy=0;labelBackgroundColor=none;strokeColor=#E07A5F;fontColor=default;endArrow=none;startFill=0;" edge="1" parent="1" source="wP0De2VSM6HoWvXEG9Eh-109" target="wP0De2VSM6HoWvXEG9Eh-42">
          <mxGeometry relative="1" as="geometry" />
        </mxCell>
        <mxCell id="wP0De2VSM6HoWvXEG9Eh-109" value="&lt;u&gt;AdmissionsID&lt;/u&gt;" style="ellipse;whiteSpace=wrap;html=1;labelBackgroundColor=none;fillColor=#F2CC8F;strokeColor=#E07A5F;fontColor=#393C56;" vertex="1" parent="1">
          <mxGeometry x="210" y="650" width="110" height="30" as="geometry" />
        </mxCell>
        <mxCell id="wP0De2VSM6HoWvXEG9Eh-111" value="&lt;u&gt;MedicalRecordsID&lt;/u&gt;" style="ellipse;whiteSpace=wrap;html=1;labelBackgroundColor=none;fillColor=#F2CC8F;strokeColor=#E07A5F;fontColor=#393C56;" vertex="1" parent="1">
          <mxGeometry x="1505" y="255" width="110" height="30" as="geometry" />
        </mxCell>
        <mxCell id="wP0De2VSM6HoWvXEG9Eh-112" style="edgeStyle=orthogonalEdgeStyle;rounded=0;orthogonalLoop=1;jettySize=auto;html=1;entryX=0.861;entryY=0.978;entryDx=0;entryDy=0;entryPerimeter=0;labelBackgroundColor=none;strokeColor=#E07A5F;fontColor=default;endArrow=none;startFill=0;" edge="1" parent="1" source="wP0De2VSM6HoWvXEG9Eh-111" target="wP0De2VSM6HoWvXEG9Eh-60">
          <mxGeometry relative="1" as="geometry" />
        </mxCell>
        <mxCell id="wP0De2VSM6HoWvXEG9Eh-114" style="edgeStyle=orthogonalEdgeStyle;rounded=0;orthogonalLoop=1;jettySize=auto;html=1;entryX=0.5;entryY=1;entryDx=0;entryDy=0;labelBackgroundColor=none;strokeColor=#E07A5F;fontColor=default;endArrow=none;startFill=0;" edge="1" parent="1" source="wP0De2VSM6HoWvXEG9Eh-113" target="wP0De2VSM6HoWvXEG9Eh-71">
          <mxGeometry relative="1" as="geometry" />
        </mxCell>
        <mxCell id="wP0De2VSM6HoWvXEG9Eh-113" value="&lt;u&gt;BillingID&lt;/u&gt;" style="ellipse;whiteSpace=wrap;html=1;labelBackgroundColor=none;fillColor=#F2CC8F;strokeColor=#E07A5F;fontColor=#393C56;" vertex="1" parent="1">
          <mxGeometry x="60" y="90" width="110" height="30" as="geometry" />
        </mxCell>
        <mxCell id="wP0De2VSM6HoWvXEG9Eh-118" style="edgeStyle=orthogonalEdgeStyle;rounded=0;orthogonalLoop=1;jettySize=auto;html=1;exitX=1;exitY=0.5;exitDx=0;exitDy=0;entryX=0;entryY=0.5;entryDx=0;entryDy=0;labelBackgroundColor=none;strokeColor=#E07A5F;fontColor=default;endArrow=none;startFill=0;" edge="1" parent="1" source="wP0De2VSM6HoWvXEG9Eh-116" target="wP0De2VSM6HoWvXEG9Eh-41">
          <mxGeometry relative="1" as="geometry" />
        </mxCell>
        <mxCell id="wP0De2VSM6HoWvXEG9Eh-116" value="have" style="rhombus;whiteSpace=wrap;html=1;labelBackgroundColor=none;fillColor=#F2CC8F;strokeColor=#E07A5F;fontColor=#393C56;" vertex="1" parent="1">
          <mxGeometry x="660" y="160" width="110" height="60" as="geometry" />
        </mxCell>
        <mxCell id="wP0De2VSM6HoWvXEG9Eh-119" value="1" style="text;html=1;align=center;verticalAlign=middle;whiteSpace=wrap;rounded=0;labelBackgroundColor=none;fontColor=#393C56;" vertex="1" parent="1">
          <mxGeometry x="470" y="150" width="60" height="30" as="geometry" />
        </mxCell>
        <mxCell id="wP0De2VSM6HoWvXEG9Eh-121" value="M" style="text;html=1;align=center;verticalAlign=middle;whiteSpace=wrap;rounded=0;labelBackgroundColor=none;fontColor=#393C56;" vertex="1" parent="1">
          <mxGeometry x="770" y="150" width="60" height="30" as="geometry" />
        </mxCell>
        <mxCell id="wP0De2VSM6HoWvXEG9Eh-123" style="edgeStyle=orthogonalEdgeStyle;rounded=0;orthogonalLoop=1;jettySize=auto;html=1;entryX=0;entryY=1;entryDx=0;entryDy=0;labelBackgroundColor=none;strokeColor=#E07A5F;fontColor=default;endArrow=none;startFill=0;" edge="1" parent="1" source="wP0De2VSM6HoWvXEG9Eh-122" target="wP0De2VSM6HoWvXEG9Eh-41">
          <mxGeometry relative="1" as="geometry" />
        </mxCell>
        <mxCell id="wP0De2VSM6HoWvXEG9Eh-125" style="edgeStyle=orthogonalEdgeStyle;rounded=0;orthogonalLoop=1;jettySize=auto;html=1;entryX=0;entryY=0.25;entryDx=0;entryDy=0;labelBackgroundColor=none;strokeColor=#E07A5F;fontColor=default;endArrow=none;startFill=0;" edge="1" parent="1" source="wP0De2VSM6HoWvXEG9Eh-122" target="wP0De2VSM6HoWvXEG9Eh-17">
          <mxGeometry relative="1" as="geometry">
            <Array as="points">
              <mxPoint x="825" y="390" />
              <mxPoint x="900" y="390" />
              <mxPoint x="900" y="440" />
            </Array>
          </mxGeometry>
        </mxCell>
        <mxCell id="wP0De2VSM6HoWvXEG9Eh-122" value="have" style="rhombus;whiteSpace=wrap;html=1;labelBackgroundColor=none;fillColor=#F2CC8F;strokeColor=#E07A5F;fontColor=#393C56;" vertex="1" parent="1">
          <mxGeometry x="770" y="320" width="110" height="60" as="geometry" />
        </mxCell>
        <mxCell id="wP0De2VSM6HoWvXEG9Eh-126" value="M" style="text;html=1;align=center;verticalAlign=middle;whiteSpace=wrap;rounded=0;labelBackgroundColor=none;fontColor=#393C56;" vertex="1" parent="1">
          <mxGeometry x="820" y="240" width="60" height="30" as="geometry" />
        </mxCell>
        <mxCell id="wP0De2VSM6HoWvXEG9Eh-127" value="1" style="text;html=1;align=center;verticalAlign=middle;whiteSpace=wrap;rounded=0;labelBackgroundColor=none;fontColor=#393C56;" vertex="1" parent="1">
          <mxGeometry x="860" y="410" width="60" height="30" as="geometry" />
        </mxCell>
        <mxCell id="wP0De2VSM6HoWvXEG9Eh-130" style="edgeStyle=orthogonalEdgeStyle;rounded=0;orthogonalLoop=1;jettySize=auto;html=1;entryX=0.25;entryY=1;entryDx=0;entryDy=0;labelBackgroundColor=none;strokeColor=#E07A5F;fontColor=default;endArrow=none;startFill=0;" edge="1" parent="1" source="wP0De2VSM6HoWvXEG9Eh-129" target="wP0De2VSM6HoWvXEG9Eh-1">
          <mxGeometry relative="1" as="geometry" />
        </mxCell>
        <mxCell id="wP0De2VSM6HoWvXEG9Eh-131" value="" style="edgeStyle=orthogonalEdgeStyle;rounded=0;orthogonalLoop=1;jettySize=auto;html=1;labelBackgroundColor=none;strokeColor=#E07A5F;fontColor=default;endArrow=none;startFill=0;" edge="1" parent="1" source="wP0De2VSM6HoWvXEG9Eh-129" target="wP0De2VSM6HoWvXEG9Eh-42">
          <mxGeometry relative="1" as="geometry" />
        </mxCell>
        <mxCell id="wP0De2VSM6HoWvXEG9Eh-129" value="admitted " style="rhombus;whiteSpace=wrap;html=1;labelBackgroundColor=none;fillColor=#F2CC8F;strokeColor=#E07A5F;fontColor=#393C56;" vertex="1" parent="1">
          <mxGeometry x="290" y="335" width="110" height="60" as="geometry" />
        </mxCell>
        <mxCell id="wP0De2VSM6HoWvXEG9Eh-132" value="1" style="text;html=1;align=center;verticalAlign=middle;whiteSpace=wrap;rounded=0;labelBackgroundColor=none;fontColor=#393C56;" vertex="1" parent="1">
          <mxGeometry x="315" y="220" width="60" height="30" as="geometry" />
        </mxCell>
        <mxCell id="wP0De2VSM6HoWvXEG9Eh-135" style="edgeStyle=orthogonalEdgeStyle;rounded=0;orthogonalLoop=1;jettySize=auto;html=1;entryX=0.5;entryY=1;entryDx=0;entryDy=0;labelBackgroundColor=none;strokeColor=#E07A5F;fontColor=default;endArrow=none;startFill=0;" edge="1" parent="1" source="wP0De2VSM6HoWvXEG9Eh-134" target="wP0De2VSM6HoWvXEG9Eh-50">
          <mxGeometry relative="1" as="geometry" />
        </mxCell>
        <mxCell id="wP0De2VSM6HoWvXEG9Eh-134" value="&lt;u&gt;RoomID&lt;/u&gt;" style="ellipse;whiteSpace=wrap;html=1;labelBackgroundColor=none;fillColor=#F2CC8F;strokeColor=#E07A5F;fontColor=#393C56;" vertex="1" parent="1">
          <mxGeometry x="340" y="1155" width="110" height="30" as="geometry" />
        </mxCell>
        <mxCell id="wP0De2VSM6HoWvXEG9Eh-138" style="edgeStyle=orthogonalEdgeStyle;rounded=0;orthogonalLoop=1;jettySize=auto;html=1;entryX=0.5;entryY=1;entryDx=0;entryDy=0;labelBackgroundColor=none;strokeColor=#E07A5F;fontColor=default;endArrow=none;startFill=0;" edge="1" parent="1" source="wP0De2VSM6HoWvXEG9Eh-137" target="wP0De2VSM6HoWvXEG9Eh-42">
          <mxGeometry relative="1" as="geometry" />
        </mxCell>
        <mxCell id="wP0De2VSM6HoWvXEG9Eh-140" style="edgeStyle=orthogonalEdgeStyle;rounded=0;orthogonalLoop=1;jettySize=auto;html=1;exitX=0.5;exitY=1;exitDx=0;exitDy=0;entryX=0;entryY=0.5;entryDx=0;entryDy=0;labelBackgroundColor=none;strokeColor=#E07A5F;fontColor=default;endArrow=none;startFill=0;" edge="1" parent="1" source="wP0De2VSM6HoWvXEG9Eh-137" target="wP0De2VSM6HoWvXEG9Eh-50">
          <mxGeometry relative="1" as="geometry" />
        </mxCell>
        <mxCell id="wP0De2VSM6HoWvXEG9Eh-137" value="link" style="rhombus;whiteSpace=wrap;html=1;labelBackgroundColor=none;fillColor=#F2CC8F;strokeColor=#E07A5F;fontColor=#393C56;" vertex="1" parent="1">
          <mxGeometry x="375" y="710" width="110" height="60" as="geometry" />
        </mxCell>
        <mxCell id="wP0De2VSM6HoWvXEG9Eh-139" value="M" style="text;html=1;align=center;verticalAlign=middle;whiteSpace=wrap;rounded=0;labelBackgroundColor=none;fontColor=#393C56;" vertex="1" parent="1">
          <mxGeometry x="370" y="560" width="60" height="30" as="geometry" />
        </mxCell>
        <mxCell id="wP0De2VSM6HoWvXEG9Eh-141" value="1" style="text;html=1;align=center;verticalAlign=middle;whiteSpace=wrap;rounded=0;labelBackgroundColor=none;fontColor=#393C56;" vertex="1" parent="1">
          <mxGeometry x="210" y="1040" width="60" height="30" as="geometry" />
        </mxCell>
        <mxCell id="wP0De2VSM6HoWvXEG9Eh-145" style="edgeStyle=orthogonalEdgeStyle;rounded=0;orthogonalLoop=1;jettySize=auto;html=1;exitX=1;exitY=0.5;exitDx=0;exitDy=0;entryX=0.5;entryY=0;entryDx=0;entryDy=0;labelBackgroundColor=none;strokeColor=#E07A5F;fontColor=default;endArrow=none;startFill=0;" edge="1" parent="1" source="wP0De2VSM6HoWvXEG9Eh-143" target="wP0De2VSM6HoWvXEG9Eh-30">
          <mxGeometry relative="1" as="geometry" />
        </mxCell>
        <mxCell id="wP0De2VSM6HoWvXEG9Eh-143" value="have" style="rhombus;whiteSpace=wrap;html=1;labelBackgroundColor=none;fillColor=#F2CC8F;strokeColor=#E07A5F;fontColor=#393C56;" vertex="1" parent="1">
          <mxGeometry x="-140" y="180" width="110" height="60" as="geometry" />
        </mxCell>
        <mxCell id="wP0De2VSM6HoWvXEG9Eh-146" value="M" style="text;html=1;align=center;verticalAlign=middle;whiteSpace=wrap;rounded=0;labelBackgroundColor=none;fontColor=#393C56;" vertex="1" parent="1">
          <mxGeometry x="-200" y="170" width="60" height="30" as="geometry" />
        </mxCell>
        <mxCell id="wP0De2VSM6HoWvXEG9Eh-147" value="1" style="text;html=1;align=center;verticalAlign=middle;whiteSpace=wrap;rounded=0;labelBackgroundColor=none;fontColor=#393C56;" vertex="1" parent="1">
          <mxGeometry x="-40" y="295" width="60" height="30" as="geometry" />
        </mxCell>
        <mxCell id="wP0De2VSM6HoWvXEG9Eh-151" value="have" style="rhombus;whiteSpace=wrap;html=1;labelBackgroundColor=none;fillColor=#F2CC8F;strokeColor=#E07A5F;fontColor=#393C56;" vertex="1" parent="1">
          <mxGeometry x="160" y="435" width="110" height="60" as="geometry" />
        </mxCell>
        <mxCell id="wP0De2VSM6HoWvXEG9Eh-154" value="1" style="text;html=1;align=center;verticalAlign=middle;whiteSpace=wrap;rounded=0;labelBackgroundColor=none;fontColor=#393C56;" vertex="1" parent="1">
          <mxGeometry x="860" y="465" width="60" height="30" as="geometry" />
        </mxCell>
        <mxCell id="wP0De2VSM6HoWvXEG9Eh-155" value="M" style="text;html=1;align=center;verticalAlign=middle;whiteSpace=wrap;rounded=0;labelBackgroundColor=none;fontColor=#393C56;" vertex="1" parent="1">
          <mxGeometry x="50" y="395" width="60" height="30" as="geometry" />
        </mxCell>
        <mxCell id="wP0De2VSM6HoWvXEG9Eh-156" value="have" style="rhombus;whiteSpace=wrap;html=1;labelBackgroundColor=none;fillColor=#F2CC8F;strokeColor=#E07A5F;fontColor=#393C56;" vertex="1" parent="1">
          <mxGeometry x="1100" y="160" width="110" height="60" as="geometry" />
        </mxCell>
        <mxCell id="wP0De2VSM6HoWvXEG9Eh-161" value="1" style="text;html=1;align=center;verticalAlign=middle;whiteSpace=wrap;rounded=0;labelBackgroundColor=none;fontColor=#393C56;" vertex="1" parent="1">
          <mxGeometry x="940" y="150" width="60" height="30" as="geometry" />
        </mxCell>
        <mxCell id="wP0De2VSM6HoWvXEG9Eh-162" value="M" style="text;html=1;align=center;verticalAlign=middle;whiteSpace=wrap;rounded=0;labelBackgroundColor=none;fontColor=#393C56;" vertex="1" parent="1">
          <mxGeometry x="1290" y="157.5" width="60" height="30" as="geometry" />
        </mxCell>
        <mxCell id="wP0De2VSM6HoWvXEG9Eh-163" value="have" style="rhombus;whiteSpace=wrap;html=1;labelBackgroundColor=none;fillColor=#F2CC8F;strokeColor=#E07A5F;fontColor=#393C56;" vertex="1" parent="1">
          <mxGeometry x="740" width="80" height="80" as="geometry" />
        </mxCell>
        <mxCell id="wP0De2VSM6HoWvXEG9Eh-166" value="1" style="text;html=1;align=center;verticalAlign=middle;whiteSpace=wrap;rounded=0;labelBackgroundColor=none;fontColor=#393C56;" vertex="1" parent="1">
          <mxGeometry x="430" y="80" width="60" height="30" as="geometry" />
        </mxCell>
        <mxCell id="wP0De2VSM6HoWvXEG9Eh-167" value="1" style="text;html=1;align=center;verticalAlign=middle;whiteSpace=wrap;rounded=0;labelBackgroundColor=none;fontColor=#393C56;" vertex="1" parent="1">
          <mxGeometry x="1400" y="120" width="60" height="30" as="geometry" />
        </mxCell>
        <mxCell id="wP0De2VSM6HoWvXEG9Eh-170" value="have" style="rhombus;whiteSpace=wrap;html=1;labelBackgroundColor=none;fillColor=#F2CC8F;strokeColor=#E07A5F;fontColor=#393C56;" vertex="1" parent="1">
          <mxGeometry x="190" y="10" width="80" height="80" as="geometry" />
        </mxCell>
        <mxCell id="wP0De2VSM6HoWvXEG9Eh-173" style="edgeStyle=orthogonalEdgeStyle;rounded=0;orthogonalLoop=1;jettySize=auto;html=1;entryX=0.126;entryY=-0.005;entryDx=0;entryDy=0;entryPerimeter=0;labelBackgroundColor=none;strokeColor=#E07A5F;fontColor=default;endArrow=none;startFill=0;" edge="1" parent="1" source="wP0De2VSM6HoWvXEG9Eh-170" target="wP0De2VSM6HoWvXEG9Eh-1">
          <mxGeometry relative="1" as="geometry">
            <Array as="points">
              <mxPoint x="360" y="50" />
              <mxPoint x="360" y="150" />
            </Array>
          </mxGeometry>
        </mxCell>
        <mxCell id="wP0De2VSM6HoWvXEG9Eh-174" value="1" style="text;html=1;align=center;verticalAlign=middle;whiteSpace=wrap;rounded=0;labelBackgroundColor=none;fontColor=#393C56;" vertex="1" parent="1">
          <mxGeometry x="310" y="110" width="60" height="30" as="geometry" />
        </mxCell>
        <mxCell id="wP0De2VSM6HoWvXEG9Eh-176" value="M" style="text;html=1;align=center;verticalAlign=middle;whiteSpace=wrap;rounded=0;labelBackgroundColor=none;fontColor=#393C56;" vertex="1" parent="1">
          <mxGeometry x="135" y="45" width="60" height="30" as="geometry" />
        </mxCell>
        <mxCell id="wP0De2VSM6HoWvXEG9Eh-181" style="edgeStyle=orthogonalEdgeStyle;rounded=0;orthogonalLoop=1;jettySize=auto;html=1;exitX=0.5;exitY=1;exitDx=0;exitDy=0;entryX=0.75;entryY=0;entryDx=0;entryDy=0;labelBackgroundColor=none;strokeColor=#E07A5F;fontColor=default;endArrow=none;startFill=0;" edge="1" parent="1" source="wP0De2VSM6HoWvXEG9Eh-179" target="wP0De2VSM6HoWvXEG9Eh-91">
          <mxGeometry relative="1" as="geometry" />
        </mxCell>
        <mxCell id="wP0De2VSM6HoWvXEG9Eh-179" value="have" style="rhombus;whiteSpace=wrap;html=1;labelBackgroundColor=none;fillColor=#F2CC8F;strokeColor=#E07A5F;fontColor=#393C56;" vertex="1" parent="1">
          <mxGeometry x="-340" y="410" width="110" height="60" as="geometry" />
        </mxCell>
        <mxCell id="wP0De2VSM6HoWvXEG9Eh-182" value="1" style="text;html=1;align=center;verticalAlign=middle;whiteSpace=wrap;rounded=0;labelBackgroundColor=none;fontColor=#393C56;" vertex="1" parent="1">
          <mxGeometry x="-280" y="272.5" width="60" height="30" as="geometry" />
        </mxCell>
        <mxCell id="wP0De2VSM6HoWvXEG9Eh-183" value="1" style="text;html=1;align=center;verticalAlign=middle;whiteSpace=wrap;rounded=0;labelBackgroundColor=none;fontColor=#393C56;" vertex="1" parent="1">
          <mxGeometry x="-290" y="694.9" width="60" height="30" as="geometry" />
        </mxCell>
        <mxCell id="wP0De2VSM6HoWvXEG9Eh-184" value="M" style="text;html=1;align=center;verticalAlign=middle;whiteSpace=wrap;rounded=0;labelBackgroundColor=none;fontColor=#393C56;" vertex="1" parent="1">
          <mxGeometry x="425" y="660" width="60" height="30" as="geometry" />
        </mxCell>
        <mxCell id="wP0De2VSM6HoWvXEG9Eh-190" value="" style="shape=link;html=1;rounded=0;entryX=0;entryY=0.5;entryDx=0;entryDy=0;exitX=1;exitY=0.5;exitDx=0;exitDy=0;labelBackgroundColor=none;strokeColor=#E07A5F;fontColor=default;" edge="1" parent="1" source="wP0De2VSM6HoWvXEG9Eh-151" target="wP0De2VSM6HoWvXEG9Eh-17">
          <mxGeometry relative="1" as="geometry">
            <mxPoint x="180" y="530" as="sourcePoint" />
            <mxPoint x="340" y="530" as="targetPoint" />
          </mxGeometry>
        </mxCell>
        <mxCell id="wP0De2VSM6HoWvXEG9Eh-192" value="" style="shape=link;html=1;rounded=0;exitX=1;exitY=0.5;exitDx=0;exitDy=0;width=4;entryX=0.5;entryY=0;entryDx=0;entryDy=0;labelBackgroundColor=none;strokeColor=#E07A5F;fontColor=default;" edge="1" parent="1" source="wP0De2VSM6HoWvXEG9Eh-163" target="wP0De2VSM6HoWvXEG9Eh-60">
          <mxGeometry relative="1" as="geometry">
            <mxPoint x="1060" y="30" as="sourcePoint" />
            <mxPoint x="1440" y="40" as="targetPoint" />
            <Array as="points">
              <mxPoint x="1420" y="30" />
            </Array>
          </mxGeometry>
        </mxCell>
        <mxCell id="wP0De2VSM6HoWvXEG9Eh-194" value="have" style="rhombus;whiteSpace=wrap;html=1;labelBackgroundColor=none;fillColor=#F2CC8F;strokeColor=#E07A5F;fontColor=#393C56;" vertex="1" parent="1">
          <mxGeometry x="745" y="5" width="70" height="70" as="geometry" />
        </mxCell>
        <mxCell id="wP0De2VSM6HoWvXEG9Eh-195" value="have" style="rhombus;whiteSpace=wrap;html=1;labelBackgroundColor=none;fillColor=#F2CC8F;strokeColor=#E07A5F;fontColor=#393C56;" vertex="1" parent="1">
          <mxGeometry x="170" y="437.5" width="90" height="55" as="geometry" />
        </mxCell>
        <mxCell id="wP0De2VSM6HoWvXEG9Eh-196" value="" style="shape=link;html=1;rounded=0;exitX=1;exitY=0.5;exitDx=0;exitDy=0;entryX=0;entryY=0.5;entryDx=0;entryDy=0;labelBackgroundColor=none;strokeColor=#E07A5F;fontColor=default;" edge="1" parent="1" source="wP0De2VSM6HoWvXEG9Eh-156" target="wP0De2VSM6HoWvXEG9Eh-60">
          <mxGeometry relative="1" as="geometry">
            <mxPoint x="1200" y="230" as="sourcePoint" />
            <mxPoint x="1360" y="230" as="targetPoint" />
          </mxGeometry>
        </mxCell>
        <mxCell id="wP0De2VSM6HoWvXEG9Eh-201" style="edgeStyle=orthogonalEdgeStyle;rounded=0;orthogonalLoop=1;jettySize=auto;html=1;labelBackgroundColor=none;strokeColor=#E07A5F;fontColor=default;endArrow=none;startFill=0;" edge="1" parent="1" source="wP0De2VSM6HoWvXEG9Eh-198">
          <mxGeometry relative="1" as="geometry">
            <mxPoint x="1020" y="490" as="targetPoint" />
          </mxGeometry>
        </mxCell>
        <mxCell id="wP0De2VSM6HoWvXEG9Eh-198" value="link" style="rhombus;whiteSpace=wrap;html=1;labelBackgroundColor=none;fillColor=#F2CC8F;strokeColor=#E07A5F;fontColor=#393C56;" vertex="1" parent="1">
          <mxGeometry x="25" y="790" width="110" height="60" as="geometry" />
        </mxCell>
        <mxCell id="wP0De2VSM6HoWvXEG9Eh-202" value="1" style="text;html=1;align=center;verticalAlign=middle;whiteSpace=wrap;rounded=0;labelBackgroundColor=none;fontColor=#393C56;" vertex="1" parent="1">
          <mxGeometry x="-240" y="744.9" width="60" height="30" as="geometry" />
        </mxCell>
        <mxCell id="wP0De2VSM6HoWvXEG9Eh-203" value="1" style="text;html=1;align=center;verticalAlign=middle;whiteSpace=wrap;rounded=0;labelBackgroundColor=none;fontColor=#393C56;" vertex="1" parent="1">
          <mxGeometry x="970" y="540" width="60" height="30" as="geometry" />
        </mxCell>
        <mxCell id="wP0De2VSM6HoWvXEG9Eh-205" style="edgeStyle=orthogonalEdgeStyle;rounded=0;orthogonalLoop=1;jettySize=auto;html=1;entryX=0;entryY=0.5;entryDx=0;entryDy=0;strokeColor=#E07A5F;fontColor=#393C56;fillColor=#F2CC8F;endArrow=none;startFill=0;" edge="1" parent="1" source="wP0De2VSM6HoWvXEG9Eh-204" target="wP0De2VSM6HoWvXEG9Eh-91">
          <mxGeometry relative="1" as="geometry" />
        </mxCell>
        <mxCell id="wP0De2VSM6HoWvXEG9Eh-204" value="&lt;u&gt;userID&lt;/u&gt;" style="ellipse;whiteSpace=wrap;html=1;labelBackgroundColor=none;fillColor=#F2CC8F;strokeColor=#E07A5F;fontColor=#393C56;" vertex="1" parent="1">
          <mxGeometry x="-550" y="714.9" width="110" height="30" as="geometry" />
        </mxCell>
        <mxCell id="wP0De2VSM6HoWvXEG9Eh-207" style="edgeStyle=orthogonalEdgeStyle;rounded=0;orthogonalLoop=1;jettySize=auto;html=1;entryX=0.25;entryY=0;entryDx=0;entryDy=0;strokeColor=#E07A5F;fontColor=#393C56;fillColor=#F2CC8F;endArrow=none;startFill=0;" edge="1" parent="1" source="wP0De2VSM6HoWvXEG9Eh-206" target="wP0De2VSM6HoWvXEG9Eh-81">
          <mxGeometry relative="1" as="geometry">
            <Array as="points">
              <mxPoint x="-320" y="143" />
              <mxPoint x="-290" y="143" />
            </Array>
          </mxGeometry>
        </mxCell>
        <mxCell id="wP0De2VSM6HoWvXEG9Eh-206" value="&lt;u&gt;StaffID&lt;/u&gt;" style="ellipse;whiteSpace=wrap;html=1;labelBackgroundColor=none;fillColor=#F2CC8F;strokeColor=#E07A5F;fontColor=#393C56;" vertex="1" parent="1">
          <mxGeometry x="-390" y="75" width="110" height="30" as="geometry" />
        </mxCell>
        <mxCell id="wP0De2VSM6HoWvXEG9Eh-209" style="edgeStyle=orthogonalEdgeStyle;rounded=0;orthogonalLoop=1;jettySize=auto;html=1;entryX=0;entryY=0.75;entryDx=0;entryDy=0;strokeColor=#E07A5F;fontColor=#393C56;fillColor=#F2CC8F;endArrow=none;startFill=0;" edge="1" parent="1" source="wP0De2VSM6HoWvXEG9Eh-208" target="wP0De2VSM6HoWvXEG9Eh-30">
          <mxGeometry relative="1" as="geometry">
            <Array as="points">
              <mxPoint x="-120" y="428" />
              <mxPoint x="-80" y="428" />
              <mxPoint x="-80" y="385" />
            </Array>
          </mxGeometry>
        </mxCell>
        <mxCell id="wP0De2VSM6HoWvXEG9Eh-208" value="DepartmentID" style="ellipse;whiteSpace=wrap;html=1;labelBackgroundColor=none;fillColor=#F2CC8F;strokeColor=#E07A5F;fontColor=#393C56;" vertex="1" parent="1">
          <mxGeometry x="-180" y="455" width="110" height="30" as="geometry" />
        </mxCell>
        <mxCell id="wP0De2VSM6HoWvXEG9Eh-210" value="treatment" style="ellipse;whiteSpace=wrap;html=1;labelBackgroundColor=none;fillColor=#F2CC8F;strokeColor=#E07A5F;fontColor=#393C56;" vertex="1" parent="1">
          <mxGeometry x="1475" y="120" width="100" height="30" as="geometry" />
        </mxCell>
      </root>
    </mxGraphModel>
  </diagram>
</mxfile>
